<?xml version="1.0" encoding="UTF-8"?>
<svg width="80px" height="80px" viewBox="0 0 80 80" version="1.1" xmlns="http://www.w3.org/2000/svg" xmlns:xlink="http://www.w3.org/1999/xlink">
    <title>二维码</title>
    <g id="页面-2" stroke="none" stroke-width="1" fill="none" fill-rule="evenodd">
        <g id="二维码" fill-rule="nonzero">
            <rect id="矩形" fill="#000000" opacity="0" x="0" y="0" width="80" height="80"></rect>
            <path d="M37.5,42.5 L28.75,42.5 L28.75,37.5 L37.5,37.5 L37.5,28.75 L42.5,28.75 L42.5,51.25 L37.5,51.25 L37.5,42.5 Z M66.25,66.25 L66.25,46.25 L71.25,46.25 L71.25,71.25 L46.25,71.25 L46.25,66.25 L66.25,66.25 Z M51.25,51.25 L51.25,62.5 L46.25,62.5 L46.25,46.25 L62.5,46.25 L62.5,51.25 L51.25,51.25 Z M13.75,13.75 L13.75,28.75 L28.75,28.75 L28.75,13.75 L13.75,13.75 Z M8.75,8.75 L33.75,8.75 L33.75,33.75 L8.75,33.75 L8.75,8.75 Z M51.25,13.75 L51.25,28.75 L66.25,28.75 L66.25,13.75 L51.25,13.75 Z M46.25,8.75 L71.25,8.75 L71.25,33.75 L46.25,33.75 L46.25,8.75 Z M8.75,37.5 L21.25,37.5 L21.25,42.5 L8.75,42.5 L8.75,37.5 Z M58.75,37.5 L71.25,37.5 L71.25,42.5 L58.75,42.5 L58.75,37.5 Z M42.5,8.75 L42.5,21.25 L37.5,21.25 L37.5,8.75 L42.5,8.75 Z M42.5,58.75 L42.5,71.25 L37.5,71.25 L37.5,58.75 L42.5,58.75 Z M13.75,51.25 L13.75,66.25 L28.75,66.25 L28.75,51.25 L13.75,51.25 Z M8.75,46.25 L33.75,46.25 L33.75,71.25 L8.75,71.25 L8.75,46.25 Z M17.5,17.5 L25,17.5 L25,25 L17.5,25 L17.5,17.5 Z M17.5,55 L25,55 L25,62.5 L17.5,62.5 L17.5,55 Z M55,17.5 L62.5,17.5 L62.5,25 L55,25 L55,17.5 Z" id="形状" fill="#FB7C27"></path>
        </g>
    </g>
</svg>