<svg xmlns="http://www.w3.org/2000/svg" width="480" height="340"><style>text{font-family:&quot;PingFang SC&quot;,Arial,sans-serif;font-size:11px;fill:#333}.axis{stroke:#ccc;stroke-width:1}.ma-label{font-size:10px;font-weight:700}</style><text x="240" y="20" style="font-size:14px;font-weight:700;fill:#c0392b;text-anchor:middle">金蜘蛛形态示意图（三线交叉向上发散）</text><path class="axis" d="M40 30v260M40 290h420"/><path fill="none" stroke="#e74c3c" stroke-width="1.5" d="m50 210 20-5 20-5 20 2 20-4 20-3 20-5 20-10 20-15 20-15 20-15 20-15 20-12 20-8 20-5 20-5 20-8 20-7 20-7 20-8"/><path fill="none" stroke="#e74c3c" stroke-width="2" d="m50 215 20-3 20-4 20-3 20-7 20-6 20-12 20-15 20-15 20-15 20-15 20-12 20-10 20-8 20-8 20-6 20-6 20-5 20-5 20-5"/><text x="435" y="58" class="ma-label" fill="#e74c3c">MA5</text><path fill="none" stroke="#2980b9" stroke-width="2" d="m50 220 20-2 20-3 20-3 20-4 20-3 20-7 20-10 20-13 20-15 20-15 20-15 20-12 20-10 20-8 20-7 20-7 20-6 20-6 20-6"/><text x="435" y="71" class="ma-label" fill="#2980b9">MA10</text><path fill="none" stroke="#e67e22" stroke-width="2" d="m50 225 20-1 20-2 20-2 20-3 20-4 20-5 20-8 20-10 20-12 20-13 20-15 20-12 20-13 20-10 20-10 20-7 20-6 20-7 20-5"/><text x="435" y="83" class="ma-label" fill="#e67e22">MA20</text><circle cx="155" cy="200" r="10" fill="none" stroke="#c0392b" stroke-width="2"/><circle cx="155" cy="200" r="3" fill="#c0392b"/><path stroke="#c0392b" stroke-width=".8" stroke-dasharray="2,2" d="M155 210v45"/><text x="125" y="268" fill="#c0392b" font-size="12" font-weight="bold">🕷️ 金蜘蛛</text><text x="100" y="282" fill="#c0392b" font-size="9">三线于一点交叉后向上发散</text><text x="320" y="40" fill="#27ae60" font-size="11" font-weight="bold">三线多头排列 ↑</text><text x="290" y="55" fill="#888" font-size="10">短期 &gt; 中期 &gt; 长期</text><path d="m350 250 70-40" stroke="#27ae60" stroke-width="2" fill="none" marker-end="url(#arrow)"/><defs><marker id="arrow" markerWidth="10" markerHeight="10" refX="8" refY="3" orient="auto"><path d="M0 0v6l9-3z" fill="#27ae60"/></marker></defs><text x="355" y="245" fill="#27ae60" font-size="10" font-weight="bold">主升浪启动</text><rect x="55" y="305" width="395" height="22" rx="4" fill="#fef5f5" stroke="#f5c6cb"/><text x="65" y="320" font-size="11" fill="#c0392b">🕷️ 金蜘蛛 = MA5、MA10、MA20 三条均线在低位形成一个交叉点，随后向上发散</text></svg>