<svg xmlns="http://www.w3.org/2000/svg" width="480" height="340"><style>text{font-family:&quot;PingFang SC&quot;,Arial,sans-serif;font-size:11px;fill:#333}.axis{stroke:#ccc;stroke-width:1}.ma-label{font-size:10px;font-weight:700}</style><text x="240" y="20" style="font-size:14px;font-weight:700;fill:#e74c3c;text-anchor:middle">断头闸刀形态示意图</text><path class="axis" d="M40 30v260M40 290h420"/><path stroke="#e74c3c" stroke-width="1.5" d="M70 170v-25"/><rect x="64" y="150" width="12" height="20" fill="#e74c3c" rx="1"/><path stroke="#e74c3c" stroke-width="1.5" d="M100 155v-25"/><rect x="94" y="135" width="12" height="20" fill="#e74c3c" rx="1"/><path stroke="#e74c3c" stroke-width="1.5" d="M130 140v-25"/><rect x="124" y="120" width="12" height="18" fill="#e74c3c" rx="1"/><path stroke="#e74c3c" stroke-width="1.5" d="M160 128v-23"/><rect x="154" y="110" width="12" height="16" fill="#e74c3c" rx="1"/><rect x="184" y="108" width="12" height="10" fill="#e74c3c" rx="1"/><path stroke="#e74c3c" stroke-width="1.5" d="M190 105v15"/><rect x="214" y="110" width="12" height="8" fill="#27ae60" rx="1"/><path stroke="#27ae60" stroke-width="1.5" d="M220 106v16"/><rect x="244" y="107" width="12" height="10" fill="#e74c3c" rx="1"/><path stroke="#e74c3c" stroke-width="1.5" d="M250 104v16"/><rect x="274" y="109" width="12" height="8" fill="#27ae60" rx="1"/><path stroke="#27ae60" stroke-width="1.5" d="M280 106v14"/><path stroke="#27ae60" stroke-width="2" d="M310 105v110"/><rect x="300" y="108" width="20" height="100" fill="#27ae60" stroke="#1e8449" stroke-width="1.5" rx="1"/><rect x="334" y="210" width="12" height="20" fill="#27ae60" rx="1"/><path stroke="#27ae60" stroke-width="1.5" d="M340 208v27"/><rect x="364" y="225" width="12" height="22" fill="#27ae60" rx="1"/><path stroke="#27ae60" stroke-width="1.5" d="M370 222v30"/><rect x="394" y="245" width="12" height="18" fill="#27ae60" rx="1"/><path stroke="#27ae60" stroke-width="1.5" d="M400 242v26"/><path fill="none" stroke="#e74c3c" stroke-width="1.5" d="m70 158 30-16 30-14 30-12 30-4 30 1 30-2 30 1 30 28 30 35 30 35 30 30"/><text x="410" y="244" class="ma-label" fill="#e74c3c">MA5</text><path fill="none" stroke="#2980b9" stroke-width="1.5" d="m70 165 30-13 30-14 30-12 30-6 30-2 30-2 30-1 30 15 30 30 30 35 30 30"/><text x="410" y="229" class="ma-label" fill="#2980b9">MA10</text><path fill="none" stroke="#e67e22" stroke-width="1.5" d="m70 180 30-12 30-13 30-13 30-8 30-6 30-4 30-4 30 2 30 16 30 27 30 33"/><text x="410" y="202" class="ma-label" fill="#e67e22">MA20</text><path stroke="#c0392b" stroke-width=".8" stroke-dasharray="2,2" d="M310 220v50"/><text x="265" y="282" fill="#c0392b" font-size="12" font-weight="bold">断头闸刀 ⚠️</text><text x="248" y="296" fill="#c0392b" font-size="9">一根大阴线跌破MA5/MA10/MA20</text><rect x="55" y="310" width="395" height="22" rx="4" fill="#fef5f5" stroke="#f5c6cb"/><text x="65" y="325" font-size="11" fill="#c0392b">⚡ 断头闸刀出现后，近一个月买入者全部被套，多头信心崩溃</text></svg>