<svg xmlns="http://www.w3.org/2000/svg" width="480" height="320"><style>text{font-family:&quot;PingFang SC&quot;,Arial,sans-serif;font-size:11px;fill:#333}.label{font-size:10px;fill:#888}.axis{stroke:#ccc;stroke-width:1}.zone{font-size:11px;font-weight:700}</style><text x="240" y="20" style="font-size:14px;font-weight:700;fill:#333;text-anchor:middle">KDJ 超买超卖与金叉死叉示意图</text><path class="axis" d="M40 30v240M40 270h420"/><text x="25" y="44" class="label">100</text><text x="28" y="92" class="label">80</text><text x="28" y="152" class="label">50</text><text x="28" y="222" class="label">20</text><text x="32" y="274" class="label">0</text><path fill="#e74c3c" opacity=".08" d="M40 35h420v53H40z"/><path stroke="#e74c3c" stroke-dasharray="4,3" d="M40 88h420"/><text x="462" y="92" class="zone" fill="#e74c3c">超买区</text><path fill="#27ae60" opacity=".08" d="M40 218h420v52H40z"/><path stroke="#27ae60" stroke-dasharray="4,3" d="M40 218h420"/><text x="462" y="222" class="zone" fill="#27ae60">超卖区</text><path stroke="#999" stroke-width=".5" stroke-dasharray="2,4" d="M40 148h420"/><path fill="none" stroke="#e74c3c" stroke-width="2" d="m55 230 20-5 20-15 20-20 20-25 20-25 20-30 20-25 20-15 20-10 20-5 20 10 20 15 20 20 20 25 20 30 20 25 20 20 20 15 20 15"/><path fill="none" stroke="#2980b9" stroke-width="2" d="m55 235 20-3 20-8 20-14 20-20 20-20 20-25 20-27 20-20 20-16 20-10 20-2 20 8 20 17 20 25 20 28 20 24 20 23 20 17 20 13"/><path fill="none" stroke="#f39c12" stroke-width="1.5" stroke-dasharray="4,2" d="m55 220 20-8 20-30 20-32 20-35 20-35 20-40 20-20 20-5 20 1 20 6 20 33 20 30 20 25 20 25 20 35 20 26 20 14 20 12 20 18"/><circle cx="115" cy="190" r="6" fill="none" stroke="#e74c3c" stroke-width="1.5"/><text x="100" y="250" fill="#e74c3c" font-size="11" font-weight="bold">金叉</text><path stroke="#e74c3c" stroke-width=".8" stroke-dasharray="2,2" d="M115 196v46"/><text x="82" y="262" fill="#e74c3c" font-size="9">（超卖区金叉，强信号）</text><circle cx="295" cy="80" r="6" fill="none" stroke="#27ae60" stroke-width="1.5"/><text x="305" y="60" fill="#27ae60" font-size="11" font-weight="bold">死叉</text><path stroke="#27ae60" stroke-width=".8" stroke-dasharray="2,2" d="M305 62v14"/><text x="305" y="50" fill="#27ae60" font-size="9">（超买区死叉，强信号）</text><path stroke="#e74c3c" stroke-width="2" d="M60 298h20"/><text x="85" y="302" font-size="11">K线（快速）</text><path stroke="#2980b9" stroke-width="2" d="M170 298h20"/><text x="195" y="302" font-size="11">D线（慢速）</text><path stroke="#f39c12" stroke-width="1.5" stroke-dasharray="4,2" d="M280 298h20"/><text x="305" y="302" font-size="11">J线（方向敏感）</text></svg>