<svg xmlns="http://www.w3.org/2000/svg" width="480" height="320"><style>text{font-family:&quot;PingFang SC&quot;,Arial,sans-serif;font-size:11px;fill:#333}.label{font-size:10px;fill:#888}.axis{stroke:#ccc;stroke-width:1}</style><text x="240" y="20" style="font-size:14px;font-weight:700;fill:#333;text-anchor:middle">MACD 金叉与死叉示意图</text><path class="axis" d="M40 30v230"/><path class="axis" stroke-dasharray="4,3" d="M40 150h420"/><text x="25" y="154" class="label">0</text><path fill="#27ae60" opacity=".7" d="M60 155h8v20h-8zM75 158h8v15h-8zM90 160h8v10h-8zM105 162h8v5h-8z"/><path fill="#e74c3c" opacity=".7" d="M120 145h8v5h-8zM135 140h8v10h-8zM150 132h8v18h-8zM165 125h8v25h-8zM180 120h8v30h-8zM195 118h8v32h-8zM210 122h8v28h-8zM225 128h8v22h-8zM240 135h8v15h-8zM255 142h8v8h-8zM270 145h8v5h-8z"/><path fill="#27ae60" opacity=".7" d="M285 152h8v5h-8zM300 155h8v12h-8zM315 158h8v18h-8zM330 160h8v25h-8zM345 162h8v30h-8zM360 160h8v22h-8zM375 157h8v15h-8zM390 155h8v8h-8z"/><path fill="#e74c3c" opacity=".7" d="M405 148h8v2h-8zM420 142h8v8h-8z"/><path fill="none" stroke="#e74c3c" stroke-width="2" d="m64 172 15-4 15-4 15-4 15-12 15-10 15-10 15-10 15-6 15-2 15 5 15 7 15 10 15 8 15 7 15 8 15 7 15 8 15 8 15 4 15-5 15-7 15-10 15-12 15-8"/><path fill="none" stroke="#2980b9" stroke-width="2" d="m64 175 15-2 15-3 15-3 15-7 15-6 15-8 15-8 15-8 15-5 15-3h15l15 6 15 6 15 6 15 8 15 5 15 5 15 7 15 7 15 2 15-1 15-5 15-8 15-7"/><circle cx="120" cy="148" r="6" fill="none" stroke="#e74c3c" stroke-width="1.5"/><text x="110" y="198" fill="#e74c3c" font-size="11" font-weight="bold">金叉</text><path stroke="#e74c3c" stroke-width=".8" stroke-dasharray="2,2" d="M120 154v36"/><circle cx="289" cy="152" r="6" fill="none" stroke="#27ae60" stroke-width="1.5"/><text x="279" y="210" fill="#27ae60" font-size="11" font-weight="bold">死叉</text><path stroke="#27ae60" stroke-width=".8" stroke-dasharray="2,2" d="M289 158v44"/><path stroke="#e74c3c" stroke-width="2" d="M60 285h20"/><text x="85" y="289" font-size="11">DIF（快线）</text><path stroke="#2980b9" stroke-width="2" d="M170 285h20"/><text x="195" y="289" font-size="11">DEA（慢线）</text><path fill="#e74c3c" opacity=".7" d="M280 280h12v10h-12z"/><text x="296" y="289" font-size="11">红柱（多头）</text><path fill="#27ae60" opacity=".7" d="M380 280h12v10h-12z"/><text x="396" y="289" font-size="11">绿柱（空头）</text><text x="460" y="154" class="label">零轴</text></svg>