<svg xmlns="http://www.w3.org/2000/svg" width="460" height="240"><style>text{font-family:&quot;PingFang SC&quot;,Arial,sans-serif;font-size:11px;fill:#333}.title{font-size:13px;font-weight:700;fill:#333;text-anchor:middle}.label{font-size:10px;fill:#888}</style><text x="110" y="18" class="title">金叉（买入信号）</text><path stroke="#ddd" stroke-width=".5" stroke-dasharray="3,3" d="M20 120h190"/><text x="8" y="124" class="label">0</text><path fill="none" stroke="#e74c3c" stroke-width="2.5" d="m30 170 30-10 30-15 30-25 30-20 30-15 20-10"/><path fill="none" stroke="#2980b9" stroke-width="2.5" d="m30 155 30-5 30-8 30-12 30-12 30-10 20-8"/><circle cx="105" cy="128" r="8" fill="none" stroke="#e74c3c" stroke-width="2"/><path stroke="#e74c3c" stroke-width=".8" stroke-dasharray="2,2" d="M105 137v38"/><text x="85" y="188" fill="#e74c3c" font-size="11" font-weight="bold">金叉 ✅</text><text x="60" y="202" fill="#888" font-size="9">DIF 从下向上穿越 DEA</text><text x="202" y="72" fill="#e74c3c" font-size="10" font-weight="bold">DIF ↑</text><text x="202" y="97" fill="#2980b9" font-size="10" font-weight="bold">DEA</text><path stroke="#eee" stroke-width="1.5" d="M230 25v190"/><text x="345" y="18" class="title">死叉（卖出信号）</text><path stroke="#ddd" stroke-width=".5" stroke-dasharray="3,3" d="M250 120h190"/><text x="238" y="124" class="label">0</text><path fill="none" stroke="#e74c3c" stroke-width="2.5" d="m260 75 30 10 30 15 30 20 30 25 30 15 20 10"/><path fill="none" stroke="#2980b9" stroke-width="2.5" d="m260 100 30 8 30 10 30 12 30 12 30 8 20 5"/><circle cx="335" cy="128" r="8" fill="none" stroke="#27ae60" stroke-width="2"/><path stroke="#27ae60" stroke-width=".8" stroke-dasharray="2,2" d="M335 137v38"/><text x="315" y="188" fill="#27ae60" font-size="11" font-weight="bold">死叉 ⚠️</text><text x="290" y="202" fill="#888" font-size="9">DIF 从上向下穿越 DEA</text><text x="432" y="167" fill="#e74c3c" font-size="10" font-weight="bold">DIF ↓</text><text x="432" y="152" fill="#2980b9" font-size="10" font-weight="bold">DEA</text><path stroke="#e74c3c" stroke-width="2.5" d="M120 225h25"/><text x="150" y="229" font-size="10">DIF（快线）</text><path stroke="#2980b9" stroke-width="2.5" d="M260 225h25"/><text x="290" y="229" font-size="10">DEA（慢线）</text></svg>