<svg xmlns="http://www.w3.org/2000/svg" width="480" height="340"><style>text{font-family:&quot;PingFang SC&quot;,Arial,sans-serif;font-size:11px;fill:#333}.axis{stroke:#ccc;stroke-width:1}.ma-label{font-size:10px;font-weight:700}</style><text x="240" y="20" style="font-size:14px;font-weight:700;fill:#333;text-anchor:middle">均线压力与支撑示意图</text><path class="axis" d="M40 30v260M40 290h420"/><path fill="none" stroke="#2980b9" stroke-width="2" d="m50 200 30-5 30-10 30-15 30-12 30-8 30-5 30-3 30 6 30 7 30 7 30-2 30-5 30-7"/><text x="442" y="144" class="ma-label" fill="#2980b9">MA20</text><path fill="none" stroke="#e67e22" stroke-width="2" d="m50 220 30-5 30-7 30-10 30-10 30-8 30-5 30-3 30 3 30 5 30 5 30-3 30-4 30-6"/><text x="442" y="168" class="ma-label" fill="#e67e22">MA60</text><path fill="none" stroke="#e74c3c" stroke-width="1.5" d="m50 230 15-10 15-10 15-15 15-15 15-10 15-15 15-10 15-10 15-10 15-5 15-5 15-5 15 8 15 12 15 10 15 15 15-7 15-13 15-10 15-7 15 10 15 10 15 7 15-10 15-10 15-10"/><circle cx="260" cy="130" r="5" fill="none" stroke="#27ae60" stroke-width="2"/><path stroke="#27ae60" stroke-width=".8" stroke-dasharray="2,2" d="M260 136v119"/><text x="235" y="268" fill="#27ae60" font-size="11" font-weight="bold">回踩支撑</text><text x="225" y="280" fill="#27ae60" font-size="9">股价回踩MA20获得支撑</text><circle cx="140" cy="155" r="5" fill="none" stroke="#e74c3c" stroke-width="2"/><text x="95" y="248" fill="#e74c3c" font-size="11" font-weight="bold">突破压力</text><text x="80" y="260" fill="#e74c3c" font-size="9">股价向上突破MA20</text><path stroke="#e74c3c" stroke-width=".8" stroke-dasharray="2,2" d="M130 155v85"/><rect x="55" y="305" width="400" height="25" rx="4" fill="#f8f9fa" stroke="#ddd"/><text x="65" y="322" font-size="11" fill="#555">💡 股价在均线上方运行时，均线构成支撑；在均线下方运行时，均线构成压力</text><path stroke="#e74c3c" stroke-width="1.5" d="M60 40h20"/><text x="85" y="44" font-size="10">股价走势</text><path stroke="#2980b9" stroke-width="2" d="M160 40h20"/><text x="185" y="44" font-size="10">MA20</text><path stroke="#e67e22" stroke-width="2" d="M230 40h20"/><text x="255" y="44" font-size="10">MA60</text></svg>