<svg width="80" height="80" xmlns="http://www.w3.org/2000/svg"><path d="M37.5 42.5h-8.75v-5h8.75v-8.75h5v22.5h-5V42.5Zm28.75 23.75v-20h5v25h-25v-5h20Zm-15-15V62.5h-5V46.25H62.5v5H51.25Zm-37.5-37.5v15h15v-15h-15Zm-5-5h25v25h-25v-25Zm42.5 5v15h15v-15h-15Zm-5-5h25v25h-25v-25ZM8.75 37.5h12.5v5H8.75v-5Zm50 0h12.5v5h-12.5v-5ZM42.5 8.75v12.5h-5V8.75h5Zm0 50v12.5h-5v-12.5h5Zm-28.75-7.5v15h15v-15h-15Zm-5-5h25v25h-25v-25ZM17.5 17.5H25V25h-7.5v-7.5Zm0 37.5H25v7.5h-7.5V55ZM55 17.5h7.5V25H55v-7.5Z" fill="#FB7C27" fill-rule="nonzero"/></svg>